<?xml version="1.0" standalone="no"?>
<!DOCTYPE svg PUBLIC "-//W3C//DTD SVG 20010904//EN"
 "http://www.w3.org/TR/2001/REC-SVG-20010904/DTD/svg10.dtd">
<svg version="1.0" xmlns="http://www.w3.org/2000/svg"
 width="550.000000pt" height="550.000000pt" viewBox="0 0 550.000000 550.000000"
 preserveAspectRatio="xMidYMid meet">
<metadata>
Created by potrace 1.14, written by Peter Selinger 2001-2017
</metadata>
<g transform="translate(0.000000,550.000000) scale(0.100000,-0.100000)"
fill="#000000" stroke="none">
<path d="M2674 5359 c-32 -18 -61 -34 -64 -38 -3 -3 -35 -22 -72 -41 -38 -19
-68 -38 -68 -41 0 -3 -16 -11 -35 -19 -19 -8 -35 -17 -35 -22 0 -4 -3 -7 -7
-7 -22 4 -42 -3 -63 -21 -13 -11 -27 -20 -32 -20 -9 0 -148 -79 -158 -90 -3
-3 -24 -14 -47 -24 -24 -11 -43 -22 -43 -25 0 -3 -27 -19 -60 -36 -33 -16 -60
-33 -60 -37 0 -4 -6 -8 -14 -8 -8 0 -21 -6 -28 -12 -7 -7 -26 -20 -43 -28 -31
-15 -161 -90 -205 -118 -14 -9 -27 -17 -30 -17 -3 0 -37 -19 -76 -42 -39 -23
-83 -47 -97 -54 -15 -7 -27 -16 -27 -21 0 -4 -6 -8 -14 -8 -7 0 -25 -9 -38
-20 -14 -10 -28 -16 -32 -13 -3 3 -6 1 -6 -5 0 -7 -6 -12 -14 -12 -8 0 -16 -3
-18 -7 -3 -8 -23 -19 -113 -67 -22 -12 -42 -24 -45 -27 -3 -3 -25 -16 -50 -30
-25 -13 -47 -26 -50 -29 -3 -3 -31 -18 -62 -35 -32 -16 -58 -32 -58 -35 0 -3
-16 -12 -35 -19 -19 -7 -35 -16 -35 -20 0 -4 -16 -13 -35 -20 -19 -7 -35 -16
-35 -20 0 -4 -16 -13 -35 -21 -19 -8 -35 -17 -35 -22 0 -4 -6 -8 -14 -8 -7 0
-25 -11 -40 -25 -15 -14 -29 -25 -32 -25 -3 0 -19 -9 -35 -21 -16 -11 -29 -18
-29 -14 0 3 -10 -3 -22 -14 -11 -11 -24 -18 -28 -16 -4 3 -15 -6 -24 -20 -14
-22 -16 -147 -16 -1338 0 -1035 3 -1316 12 -1329 7 -8 38 -28 68 -44 30 -16
57 -32 60 -35 5 -6 35 -22 90 -51 14 -7 27 -15 30 -19 3 -3 34 -21 70 -40 36
-19 67 -37 70 -40 3 -3 30 -19 60 -35 30 -16 60 -34 67 -41 7 -6 23 -15 36
-19 12 -4 24 -10 27 -14 3 -3 30 -20 60 -36 30 -16 57 -31 60 -35 3 -3 30 -19
60 -35 30 -16 58 -33 62 -39 5 -7 8 -7 8 0 0 6 3 6 8 -1 4 -6 32 -24 62 -40
30 -16 57 -31 60 -34 9 -9 65 -41 98 -56 18 -8 40 -21 50 -29 9 -8 21 -15 25
-15 4 1 19 -8 34 -20 14 -11 32 -20 39 -20 8 0 14 -3 14 -7 0 -5 31 -24 68
-43 37 -19 73 -40 80 -47 6 -6 21 -15 32 -18 11 -3 20 -11 20 -16 0 -5 3 -9 8
-8 14 2 52 -13 52 -21 0 -5 9 -11 19 -15 11 -3 36 -17 55 -30 20 -13 36 -22
36 -19 0 3 13 -4 29 -15 16 -12 34 -21 40 -21 6 0 11 -4 11 -8 0 -10 50 -37
63 -34 4 1 7 -3 7 -8 0 -6 4 -10 9 -10 5 0 59 -29 120 -65 60 -36 114 -65 120
-65 6 0 11 -4 11 -9 0 -5 16 -15 35 -22 19 -7 35 -16 35 -20 0 -4 15 -12 33
-20 17 -7 34 -16 37 -19 10 -14 126 -70 144 -70 10 0 42 14 70 32 28 17 67 40
86 50 107 60 146 82 150 87 5 6 22 15 143 80 126 67 142 76 147 82 3 3 21 14
40 24 19 10 37 21 40 24 3 4 34 22 69 40 36 19 71 40 79 47 7 8 19 14 27 14 7
0 15 3 17 8 2 4 19 15 38 25 19 10 49 26 65 35 114 65 151 86 155 91 3 3 23
15 45 27 100 53 160 88 163 96 2 4 9 8 16 8 7 0 23 9 36 20 13 11 31 20 42 20
10 0 18 3 18 8 0 4 17 16 38 27 20 11 61 35 90 53 28 18 52 29 52 26 0 -4 10
2 23 13 12 11 29 23 37 26 8 4 38 20 65 37 28 16 60 34 72 39 11 5 24 15 28
21 3 5 10 8 14 6 4 -3 17 3 28 14 12 10 24 16 27 13 3 -4 6 -1 6 5 0 7 6 12
14 12 8 0 21 6 28 12 7 7 27 20 43 28 28 13 77 43 172 103 24 15 46 27 49 27
4 0 17 12 30 26 l24 25 -2 1312 c-3 1297 -3 1313 -23 1333 -23 24 -176 114
-193 114 -7 0 -12 4 -12 10 0 5 -11 12 -25 16 -14 3 -25 10 -25 16 0 5 -5 6
-10 3 -6 -3 -13 1 -16 9 -3 9 -15 16 -25 16 -10 0 -19 4 -19 8 0 5 -18 17 -40
27 -22 10 -40 22 -40 27 0 4 -9 8 -20 8 -11 0 -20 5 -20 12 0 6 -3 9 -6 5 -4
-3 -21 4 -38 16 -17 13 -44 30 -61 38 -16 7 -35 21 -42 29 -7 8 -13 12 -13 7
0 -4 -18 4 -40 18 -22 14 -42 25 -44 25 -2 0 -28 16 -58 35 -29 19 -62 38 -73
41 -11 4 -22 10 -25 14 -3 4 -35 23 -72 43 -37 20 -88 50 -114 67 -27 16 -54
30 -61 30 -7 0 -13 4 -13 9 0 5 -12 14 -27 21 -32 13 -64 31 -149 83 -34 20
-67 37 -73 37 -6 0 -11 4 -11 8 0 8 -54 38 -56 30 0 -1 -8 5 -18 15 -10 9 -24
17 -32 17 -8 0 -14 4 -14 9 0 5 -12 14 -27 20 -16 7 -37 17 -48 24 -11 7 -58
34 -105 61 -47 27 -93 55 -102 64 -10 8 -18 11 -18 7 0 -4 -9 0 -20 10 -12 11
-28 20 -36 21 -9 1 -23 9 -32 16 -10 8 -30 20 -47 28 -16 8 -36 21 -43 28 -7
6 -19 12 -27 12 -7 0 -15 3 -17 8 -5 13 -240 142 -258 142 -9 0 -44 -14 -76
-31z"/>
</g>
</svg>
